  0
SECTION
  2
HEADER
  9
$ACADVER
 1
AC1009
  9
$INSBASE
 10
0
 20
0
 30
0
  9
$LIMMIN
 10
0
 20
0
  9
$LIMMAX
 10
10.2
 20
7.96
  0
ENDSEC
  0
SECTION
  2
TABLES
  0
TABLE
  2
LTYPE
 70
 25
  0
LTYPE
  2
SOLIDLINE
 70
64
  3
Solid line
 72
65
 73
 0
 40
0.0
  0
LTYPE
  2
DASHEDLINE
 70
64
  3
Dashed line
 72
65
 73
2
 40
0.05
 49
0.035
 49
5g
  0
LTYPE
  2
DOTTEDLINE
 70
64
  3
Dotted line
 72
65
 73
2
 40
-0.015
 49
0.02
 49
0.01
  0
ENDTAB
  0
TABLE
  2
LAYER
 70
1
  0
LAYER
  2
0
  6
SOLIDLINE
 62
7
 70
0
  0
ENDTAB
  0
TABLE
  2
STYLE
 70
1
  0
STYLE
  2
STANDARD
 70
0
 40
0.0
 41
1.0
 50
0.0
 71
0
 42
0.2
  3
TXT
  0
ENDTAB
  0
ENDSEC
  0
SECTION
  2
BLOCKS
  0
ENDSEC
  0
SECTION
  2
ENTITIES
  0
LINE
  8
0
  6
SOLIDLINE
 62
5
 10
5.1
 20
7.58
 11
5.1
 21
7.96
  0
LINE
  8
0
  6
SOLIDLINE
 62
5
 10
5.1
 20
0.38
 11
5.1
 21
0
  0
TEXT
  8
0
 62
5
 10
7.56704
 20
7.64293
 30
0.0
 40
0.1764
  1
1
 50
0
 41
1.098
 72
1
 11
7.52
 21
7.58472
 31
0
 73
1
  0
TEXT
  8
0
 62
5
 10
7.56704
 20
0.062932
 30
0.0
 40
0.1764
  1
1
 50
0
 41
1.098
 72
1
 11
7.52
 21
0.00472
 31
0
 73
1
  0
TEXT
  8
0
 62
5
 10
2.71704
 20
7.64293
 30
0.0
 40
0.1764
  1
2
 50
0
 41
1.098
 72
1
 11
2.67
 21
7.58472
 31
0
 73
1
  0
TEXT
  8
0
 62
5
 10
2.71704
 20
0.062932
 30
0.0
 40
0.1764
  1
2
 50
0
 41
1.098
 72
1
 11
2.67
 21
0.00472
 31
0
 73
1
  0
LINE
  8
0
  6
SOLIDLINE
 62
5
 10
5.1
 20
7.96
 11
5.1
 21
7.58
  0
SOLID
  8
0
  6
SOLIDLINE
 62
5
 10
5.04
 20
7.77
 30
0.0
 11
5.16
 21
7.77
 31
0.0
 12
5.1
 22
7.58
 32
0.0
 13
5.1
 23
7.58
 33
0.0
  0
POLYLINE
  8
0
  6
SOLIDLINE
 62
5
 66
  1
 10
0.0
 20
0.0
 30
0.0
 70
1
  0
VERTEX
  8
0
 10
5.04
 20
7.77
 30
0.0
  0
VERTEX
  8
0
 10
5.16
 20
7.77
 30
0.0
  0
VERTEX
  8
0
 10
5.1
 20
7.58
 30
0.0
  0
SEQEND
  0
LINE
  8
0
  6
SOLIDLINE
 62
5
 10
5.1
 20
0
 11
5.1
 21
0.38
  0
SOLID
  8
0
  6
SOLIDLINE
 62
5
 10
5.16
 20
0.19
 30
0.0
 11
5.04
 21
0.19
 31
0.0
 12
5.1
 22
0.38
 32
0.0
 13
5.1
 23
0.38
 33
0.0
  0
POLYLINE
  8
0
  6
SOLIDLINE
 62
5
 66
  1
 10
0.0
 20
0.0
 30
0.0
 70
1
  0
VERTEX
  8
0
 10
5.16
 20
0.19
 30
0.0
  0
VERTEX
  8
0
 10
5.04
 20
0.19
 30
0.0
  0
VERTEX
  8
0
 10
5.1
 20
0.38
 30
0.0
  0
SEQEND
  0
LINE
  8
0
  6
SOLIDLINE
 62
5
 10
0.25
 20
3.98
 11
0
 21
3.98
  0
LINE
  8
0
  6
SOLIDLINE
 62
5
 10
9.95
 20
3.98
 11
10.2
 21
3.98
  0
TEXT
  8
0
 62
5
 10
0.16704
 20
2.14472
 30
0.0
 40
0.1764
  1
A
 50
0
 41
1.098
 72
1
 11
0.12
 21
2.14472
 31
0
 73
0
  0
TEXT
  8
0
 62
5
 10
10.117
 20
2.14472
 30
0.0
 40
0.1764
  1
A
 50
0
 41
1.098
 72
1
 11
10.07
 21
2.14472
 31
0
 73
0
  0
TEXT
  8
0
 62
5
 10
0.16704
 20
5.74472
 30
0.0
 40
0.1764
  1
B
 50
0
 41
1.098
 72
1
 11
0.12
 21
5.74472
 31
0
 73
0
  0
TEXT
  8
0
 62
5
 10
10.117
 20
5.74472
 30
0.0
 40
0.1764
  1
B
 50
0
 41
1.098
 72
1
 11
10.07
 21
5.74472
 31
0
 73
0
  0
LINE
  8
0
  6
SOLIDLINE
 62
5
 10
0
 20
3.98
 11
0.25
 21
3.98
  0
SOLID
  8
0
  6
SOLIDLINE
 62
5
 10
0.14
 20
3.94
 30
0.0
 11
0.14
 21
4.02
 31
0.0
 12
0.25
 22
3.98
 32
0.0
 13
0.25
 23
3.98
 33
0.0
  0
POLYLINE
  8
0
  6
SOLIDLINE
 62
5
 66
  1
 10
0.0
 20
0.0
 30
0.0
 70
1
  0
VERTEX
  8
0
 10
0.14
 20
3.94
 30
0.0
  0
VERTEX
  8
0
 10
0.14
 20
4.02
 30
0.0
  0
VERTEX
  8
0
 10
0.25
 20
3.98
 30
0.0
  0
SEQEND
  0
LINE
  8
0
  6
SOLIDLINE
 62
5
 10
10.2
 20
3.98
 11
9.95
 21
3.98
  0
SOLID
  8
0
  6
SOLIDLINE
 62
5
 10
10.06
 20
4.02
 30
0.0
 11
10.06
 21
3.94
 31
0.0
 12
9.95
 22
3.98
 32
0.0
 13
9.95
 23
3.98
 33
0.0
  0
POLYLINE
  8
0
  6
SOLIDLINE
 62
5
 66
  1
 10
0.0
 20
0.0
 30
0.0
 70
1
  0
VERTEX
  8
0
 10
10.06
 20
4.02
 30
0.0
  0
VERTEX
  8
0
 10
10.06
 20
3.94
 30
0.0
  0
VERTEX
  8
0
 10
9.95
 20
3.98
 30
0.0
  0
SEQEND
  0
LINE
  8
0
  6
SOLIDLINE
 62
5
 10
0
 20
0
 11
10.2
 21
0
  0
LINE
  8
0
  6
SOLIDLINE
 62
5
 10
10.2
 20
0
 11
10.2
 21
7.96
  0
LINE
  8
0
  6
SOLIDLINE
 62
5
 10
10.2
 20
7.96
 11
0
 21
7.96
  0
LINE
  8
0
  6
SOLIDLINE
 62
5
 10
0
 20
7.96
 11
0
 21
0
  0
LINE
  8
0
  6
SOLIDLINE
 62
5
 10
0.25
 20
0.38
 11
9.95
 21
0.38
  0
LINE
  8
0
  6
SOLIDLINE
 62
5
 10
9.95
 20
0.38
 11
9.95
 21
7.58
  0
LINE
  8
0
  6
SOLIDLINE
 62
5
 10
9.95
 20
7.58
 11
0.25
 21
7.58
  0
LINE
  8
0
  6
SOLIDLINE
 62
5
 10
0.25
 20
7.58
 11
0.25
 21
0.38
  0
CIRCLE
  8
0
  6
SOLIDLINE
 62
5
 10
2.15
 20
5.78
 30
0.0
 40
0.1
  0
LINE
  8
0
  6
SOLIDLINE
 62
5
 10
2.15
 20
5.73
 11
2.1
 21
5.78
  0
LINE
  8
0
  6
SOLIDLINE
 62
5
 10
2.15
 20
5.73
 11
2.2
 21
5.78
  0
LINE
  8
0
  6
SOLIDLINE
 62
5
 10
2.15
 20
5.83
 11
2.15
 21
5.73
  0
LINE
  8
0
  6
SOLIDLINE
 62
5
 10
2.15
 20
5.98
 11
2.15
 21
5.88
  0
TEXT
  8
0
 62
94
 10
2.16103
 20
5.83294
 30
0.0
 40
0.03528
  1
+
 50
0
 41
1.098
 72
1
 11
2.15
 21
5.83294
 31
0
 73
0
  0
LINE
  8
0
  6
SOLIDLINE
 62
5
 10
2.15
 20
5.58
 11
2.15
 21
5.68
  0
TEXT
  8
0
 62
94
 10
2.16103
 20
5.67294
 30
0.0
 40
0.03528
  1
-
 50
0
 41
1.098
 72
1
 11
2.15
 21
5.67294
 31
0
 73
0
  0
TEXT
  8
0
 62
5
 10
1.9894
 20
5.76059
 30
0.0
 40
0.04704
  1
1A
 50
0
 41
1.098
 72
1
 11
1.96
 21
5.76059
 31
0
 73
0
  0
TEXT
  8
0
 62
5
 10
2.05
 20
5.47059
 30
0.0
 40
0.04704
  1
IDC
 50
0
 41
1.098
 72
0
 11
2.05
 21
5.47059
 31
0
 73
0
  0
TEXT
  8
0
 62
5
 10
2.2794
 20
5.87059
 30
0.0
 40
0.04704
  1
I1
 50
0
 41
1.098
 72
1
 11
2.25
 21
5.87059
 31
0
 73
0
  0
SOLID
  8
0
  6
SOLIDLINE
 62
5
 10
2.13
 20
5.94
 30
0.0
 11
2.13
 21
5.9
 31
0.0
 12
2.47
 22
5.94
 32
0.0
 13
2.47
 23
5.9
 33
0.0
  0
SOLID
  8
0
  6
SOLIDLINE
 62
5
 10
2.16
 20
5.97
 30
0.0
 11
2.16
 21
5.87
 31
0.0
 12
2.44
 22
5.97
 32
0.0
 13
2.44
 23
5.87
 33
0.0
  0
POLYLINE
  8
0
  6
SOLIDLINE
 62
5
 66
  1
 10
0.0
 20
0.0
 30
0.0
 40
0.03
 41
0.03
 70
1
  0
VERTEX
  8
0
 10
2.15
 20
5.94
 30
0.0
 42
1
  0
VERTEX
  8
0
 10
2.17
 20
5.94
 30
0.0
 42
1
  0
SEQEND
  0
POLYLINE
  8
0
  6
SOLIDLINE
 62
5
 66
  1
 10
0.0
 20
0.0
 30
0.0
 40
0.03
 41
0.03
 70
1
  0
VERTEX
  8
0
 10
2.15
 20
5.9
 30
0.0
 42
1
  0
VERTEX
  8
0
 10
2.17
 20
5.9
 30
0.0
 42
1
  0
SEQEND
  0
POLYLINE
  8
0
  6
SOLIDLINE
 62
5
 66
  1
 10
0.0
 20
0.0
 30
0.0
 40
0.03
 41
0.03
 70
1
  0
VERTEX
  8
0
 10
2.43
 20
5.94
 30
0.0
 42
1
  0
VERTEX
  8
0
 10
2.45
 20
5.94
 30
0.0
 42
1
  0
SEQEND
  0
POLYLINE
  8
0
  6
SOLIDLINE
 62
5
 66
  1
 10
0.0
 20
0.0
 30
0.0
 40
0.03
 41
0.03
 70
1
  0
VERTEX
  8
0
 10
2.43
 20
5.9
 30
0.0
 42
1
  0
VERTEX
  8
0
 10
2.45
 20
5.9
 30
0.0
 42
1
  0
SEQEND
  0
ARC
  8
0
  6
SOLIDLINE
 62
5
 10
2.17
 20
5.94
 40
0.03
 50
108.435
 51
180
  0
LINE
  8
0
  6
SOLIDLINE
 62
5
 10
2.16
 20
5.97
 11
2.44
 21
5.97
  0
ARC
  8
0
  6
SOLIDLINE
 62
5
 10
2.44
 20
5.94
 40
0.03
 50
2.92403e-010
 51
90
  0
LINE
  8
0
  6
SOLIDLINE
 62
5
 10
2.47
 20
5.94
 11
2.47
 21
5.9
  0
ARC
  8
0
  6
SOLIDLINE
 62
5
 10
2.17
 20
5.91
 40
0.04
 50
194.036
 51
255.964
  0
LINE
  8
0
  6
SOLIDLINE
 62
5
 10
2.44
 20
5.87
 11
2.16
 21
5.87
  0
ARC
  8
0
  6
SOLIDLINE
 62
5
 10
2.44
 20
5.91
 40
0.04
 50
270
 51
341.565
  0
LINE
  8
0
  6
SOLIDLINE
 62
5
 10
2.13
 20
5.9
 11
2.13
 21
5.94
  0
TEXT
  8
0
 62
7
 10
2.15
 20
5.87059
 30
0.0
 40
0.04704
  1
1.000A
 50
0
 41
1.098
 72
0
 11
2.15
 21
5.87059
 31
0
 73
0
  0
LINE
  8
0
  6
SOLIDLINE
 62
5
 10
3.12
 20
6.23
 11
3.12
 21
6.33
  0
LINE
  8
0
  6
SOLIDLINE
 62
5
 10
3.15
 20
6.38
 11
3.15
 21
6.18
  0
LINE
  8
0
  6
SOLIDLINE
 62
5
 10
3.19
 20
6.23
 11
3.19
 21
6.33
  0
LINE
  8
0
  6
SOLIDLINE
 62
5
 10
3.04
 20
6.28
 11
3.09
 21
6.28
  0
LINE
  8
0
  6
SOLIDLINE
 62
5
 10
3.25
 20
6.28
 11
3.19
 21
6.28
  0
LINE
  8
0
  6
SOLIDLINE
 62
5
 10
3.09
 20
6.18
 11
3.09
 21
6.38
  0
LINE
  8
0
  6
SOLIDLINE
 62
5
 10
2.95
 20
6.28
 11
3.05
 21
6.28
  0
TEXT
  8
0
 62
94
 10
3.02706
 20
6.23102
 30
0.0
 40
0.03528
  1
+
 50
90
 41
1.098
 72
1
 11
3.02706
 21
6.22
 31
0
 73
0
  0
LINE
  8
0
  6
SOLIDLINE
 62
5
 10
3.35
 20
6.28
 11
3.25
 21
6.28
  0
TEXT
  8
0
 62
94
 10
3.32706
 20
6.24103
 30
0.0
 40
0.03528
  1
-
 50
90
 41
1.098
 72
1
 11
3.32706
 21
6.23
 31
0
 73
0
  0
TEXT
  8
0
 62
5
 10
3.0994
 20
6.02059
 30
0.0
 40
0.04704
  1
6V
 50
0
 41
1.098
 72
1
 11
3.07
 21
6.02059
 31
0
 73
0
  0
TEXT
  8
0
 62
5
 10
2.9894
 20
6.37059
 30
0.0
 40
0.04704
  1
V1
 50
0
 41
1.098
 72
1
 11
2.96
 21
6.37059
 31
0
 73
0
  0
SOLID
  8
0
  6
SOLIDLINE
 62
5
 10
3.23
 20
6.34
 30
0.0
 11
3.23
 21
6.3
 31
0.0
 12
3.57
 22
6.34
 32
0.0
 13
3.57
 23
6.3
 33
0.0
  0
SOLID
  8
0
  6
SOLIDLINE
 62
5
 10
3.26
 20
6.37
 30
0.0
 11
3.26
 21
6.27
 31
0.0
 12
3.54
 22
6.37
 32
0.0
 13
3.54
 23
6.27
 33
0.0
  0
POLYLINE
  8
0
  6
SOLIDLINE
 62
5
 66
  1
 10
0.0
 20
0.0
 30
0.0
 40
0.03
 41
0.03
 70
1
  0
VERTEX
  8
0
 10
3.25
 20
6.34
 30
0.0
 42
1
  0
VERTEX
  8
0
 10
3.27
 20
6.34
 30
0.0
 42
1
  0
SEQEND
  0
POLYLINE
  8
0
  6
SOLIDLINE
 62
5
 66
  1
 10
0.0
 20
0.0
 30
0.0
 40
0.03
 41
0.03
 70
1
  0
VERTEX
  8
0
 10
3.25
 20
6.3
 30
0.0
 42
1
  0
VERTEX
  8
0
 10
3.27
 20
6.3
 30
0.0
 42
1
  0
SEQEND
  0
POLYLINE
  8
0
  6
SOLIDLINE
 62
5
 66
  1
 10
0.0
 20
0.0
 30
0.0
 40
0.03
 41
0.03
 70
1
  0
VERTEX
  8
0
 10
3.53
 20
6.34
 30
0.0
 42
1
  0
VERTEX
  8
0
 10
3.55
 20
6.34
 30
0.0
 42
1
  0
SEQEND
  0
POLYLINE
  8
0
  6
SOLIDLINE
 62
5
 66
  1
 10
0.0
 20
0.0
 30
0.0
 40
0.03
 41
0.03
 70
1
  0
VERTEX
  8
0
 10
3.53
 20
6.3
 30
0.0
 42
1
  0
VERTEX
  8
0
 10
3.55
 20
6.3
 30
0.0
 42
1
  0
SEQEND
  0
ARC
  8
0
  6
SOLIDLINE
 62
5
 10
3.27
 20
6.34
 40
0.03
 50
108.435
 51
180
  0
LINE
  8
0
  6
SOLIDLINE
 62
5
 10
3.26
 20
6.37
 11
3.54
 21
6.37
  0
ARC
  8
0
  6
SOLIDLINE
 62
5
 10
3.54
 20
6.34
 40
0.03
 50
2.92403e-010
 51
90
  0
LINE
  8
0
  6
SOLIDLINE
 62
5
 10
3.57
 20
6.34
 11
3.57
 21
6.3
  0
ARC
  8
0
  6
SOLIDLINE
 62
5
 10
3.27
 20
6.31
 40
0.04
 50
194.036
 51
255.964
  0
LINE
  8
0
  6
SOLIDLINE
 62
5
 10
3.54
 20
6.27
 11
3.26
 21
6.27
  0
ARC
  8
0
  6
SOLIDLINE
 62
5
 10
3.54
 20
6.31
 40
0.04
 50
270
 51
341.565
  0
LINE
  8
0
  6
SOLIDLINE
 62
5
 10
3.23
 20
6.3
 11
3.23
 21
6.34
  0
TEXT
  8
0
 62
7
 10
3.25
 20
6.27059
 30
0.0
 40
0.04704
  1
1.091A
 50
0
 41
1.098
 72
0
 11
3.25
 21
6.27059
 31
0
 73
0
  0
LINE
  8
0
  6
SOLIDLINE
 62
94
 10
3.99
 20
5.9
 11
3.91
 21
5.93
  0
LINE
  8
0
  6
SOLIDLINE
 62
94
 10
3.91
 20
5.81
 11
3.99
 21
5.84
  0
LINE
  8
0
  6
SOLIDLINE
 62
94
 10
3.99
 20
5.84
 11
3.91
 21
5.87
  0
LINE
  8
0
  6
SOLIDLINE
 62
94
 10
3.91
 20
5.87
 11
3.99
 21
5.9
  0
LINE
  8
0
  6
SOLIDLINE
 62
94
 10
3.91
 20
5.93
 11
3.99
 21
5.96
  0
LINE
  8
0
  6
SOLIDLINE
 62
94
 10
3.95
 20
5.79
 11
3.91
 21
5.81
  0
LINE
  8
0
  6
SOLIDLINE
 62
94
 10
3.99
 20
5.96
 11
3.95
 21
5.98
  0
LINE
  8
0
  6
SOLIDLINE
 62
94
 10
3.95
 20
5.78
 11
3.95
 21
5.79
  0
LINE
  8
0
  6
SOLIDLINE
 62
5
 10
3.95
 20
6.08
 11
3.95
 21
5.98
  0
LINE
  8
0
  6
SOLIDLINE
 62
5
 10
3.95
 20
5.68
 11
3.95
 21
5.78
  0
TEXT
  8
0
 62
5
 10
4.03
 20
5.82059
 30
0.0
 40
0.04704
  1
5ohm
 50
0
 41
1.098
 72
0
 11
4.03
 21
5.82059
 31
0
 73
0
  0
TEXT
  8
0
 62
5
 10
3.73
 20
5.82059
 30
0.0
 40
0.04704
  1
R2
 50
0
 41
1.098
 72
0
 11
3.73
 21
5.82059
 31
0
 73
0
  0
SOLID
  8
0
  6
SOLIDLINE
 62
5
 10
3.93
 20
5.76
 30
0.0
 11
3.93
 21
5.72
 31
0.0
 12
4.27
 22
5.76
 32
0.0
 13
4.27
 23
5.72
 33
0.0
  0
SOLID
  8
0
  6
SOLIDLINE
 62
5
 10
3.96
 20
5.79
 30
0.0
 11
3.96
 21
5.69
 31
0.0
 12
4.24
 22
5.79
 32
0.0
 13
4.24
 23
5.69
 33
0.0
  0
POLYLINE
  8
0
  6
SOLIDLINE
 62
5
 66
  1
 10
0.0
 20
0.0
 30
0.0
 40
0.03
 41
0.03
 70
1
  0
VERTEX
  8
0
 10
3.95
 20
5.76
 30
0.0
 42
1
  0
VERTEX
  8
0
 10
3.97
 20
5.76
 30
0.0
 42
1
  0
SEQEND
  0
POLYLINE
  8
0
  6
SOLIDLINE
 62
5
 66
  1
 10
0.0
 20
0.0
 30
0.0
 40
0.03
 41
0.03
 70
1
  0
VERTEX
  8
0
 10
3.95
 20
5.72
 30
0.0
 42
1
  0
VERTEX
  8
0
 10
3.97
 20
5.72
 30
0.0
 42
1
  0
SEQEND
  0
POLYLINE
  8
0
  6
SOLIDLINE
 62
5
 66
  1
 10
0.0
 20
0.0
 30
0.0
 40
0.03
 41
0.03
 70
1
  0
VERTEX
  8
0
 10
4.23
 20
5.76
 30
0.0
 42
1
  0
VERTEX
  8
0
 10
4.25
 20
5.76
 30
0.0
 42
1
  0
SEQEND
  0
POLYLINE
  8
0
  6
SOLIDLINE
 62
5
 66
  1
 10
0.0
 20
0.0
 30
0.0
 40
0.03
 41
0.03
 70
1
  0
VERTEX
  8
0
 10
4.23
 20
5.72
 30
0.0
 42
1
  0
VERTEX
  8
0
 10
4.25
 20
5.72
 30
0.0
 42
1
  0
SEQEND
  0
ARC
  8
0
  6
SOLIDLINE
 62
5
 10
3.97
 20
5.76
 40
0.03
 50
108.435
 51
180
  0
LINE
  8
0
  6
SOLIDLINE
 62
5
 10
3.96
 20
5.79
 11
4.24
 21
5.79
  0
ARC
  8
0
  6
SOLIDLINE
 62
5
 10
4.24
 20
5.76
 40
0.03
 50
2.92403e-010
 51
90
  0
LINE
  8
0
  6
SOLIDLINE
 62
5
 10
4.27
 20
5.76
 11
4.27
 21
5.72
  0
ARC
  8
0
  6
SOLIDLINE
 62
5
 10
3.97
 20
5.73
 40
0.04
 50
194.036
 51
255.964
  0
LINE
  8
0
  6
SOLIDLINE
 62
5
 10
4.24
 20
5.69
 11
3.96
 21
5.69
  0
ARC
  8
0
  6
SOLIDLINE
 62
5
 10
4.24
 20
5.73
 40
0.04
 50
270
 51
341.565
  0
LINE
  8
0
  6
SOLIDLINE
 62
5
 10
3.93
 20
5.72
 11
3.93
 21
5.76
  0
TEXT
  8
0
 62
7
 10
3.95
 20
5.72355
 30
0.0
 40
0.04704
  1
1.018A
 50
0
 41
1.098
 72
0
 11
3.95
 21
5.77059
 31
0
 73
3
  0
LINE
  8
0
  6
SOLIDLINE
 62
94
 10
4.37
 20
6.24
 11
4.4
 21
6.32
  0
LINE
  8
0
  6
SOLIDLINE
 62
94
 10
4.28
 20
6.32
 11
4.31
 21
6.24
  0
LINE
  8
0
  6
SOLIDLINE
 62
94
 10
4.31
 20
6.24
 11
4.34
 21
6.32
  0
LINE
  8
0
  6
SOLIDLINE
 62
94
 10
4.34
 20
6.32
 11
4.37
 21
6.24
  0
LINE
  8
0
  6
SOLIDLINE
 62
94
 10
4.4
 20
6.32
 11
4.43
 21
6.24
  0
LINE
  8
0
  6
SOLIDLINE
 62
94
 10
4.26
 20
6.28
 11
4.28
 21
6.32
  0
LINE
  8
0
  6
SOLIDLINE
 62
94
 10
4.43
 20
6.24
 11
4.45
 21
6.28
  0
LINE
  8
0
  6
SOLIDLINE
 62
94
 10
4.25
 20
6.28
 11
4.26
 21
6.28
  0
LINE
  8
0
  6
SOLIDLINE
 62
5
 10
4.55
 20
6.28
 11
4.45
 21
6.28
  0
LINE
  8
0
  6
SOLIDLINE
 62
5
 10
4.15
 20
6.28
 11
4.25
 21
6.28
  0
TEXT
  8
0
 62
5
 10
4.3
 20
6.12059
 30
0.0
 40
0.04704
  1
70ohm
 50
0
 41
1.098
 72
0
 11
4.3
 21
6.12059
 31
0
 73
0
  0
TEXT
  8
0
 62
5
 10
4.3
 20
6.37059
 30
0.0
 40
0.04704
  1
R1
 50
0
 41
1.098
 72
0
 11
4.3
 21
6.37059
 31
0
 73
0
  0
SOLID
  8
0
  6
SOLIDLINE
 62
5
 10
4.43
 20
6.34
 30
0.0
 11
4.43
 21
6.3
 31
0.0
 12
4.82
 22
6.34
 32
0.0
 13
4.82
 23
6.3
 33
0.0
  0
SOLID
  8
0
  6
SOLIDLINE
 62
5
 10
4.46
 20
6.37
 30
0.0
 11
4.46
 21
6.27
 31
0.0
 12
4.79
 22
6.37
 32
0.0
 13
4.79
 23
6.27
 33
0.0
  0
POLYLINE
  8
0
  6
SOLIDLINE
 62
5
 66
  1
 10
0.0
 20
0.0
 30
0.0
 40
0.03
 41
0.03
 70
1
  0
VERTEX
  8
0
 10
4.45
 20
6.34
 30
0.0
 42
1
  0
VERTEX
  8
0
 10
4.47
 20
6.34
 30
0.0
 42
1
  0
SEQEND
  0
POLYLINE
  8
0
  6
SOLIDLINE
 62
5
 66
  1
 10
0.0
 20
0.0
 30
0.0
 40
0.03
 41
0.03
 70
1
  0
VERTEX
  8
0
 10
4.45
 20
6.3
 30
0.0
 42
1
  0
VERTEX
  8
0
 10
4.47
 20
6.3
 30
0.0
 42
1
  0
SEQEND
  0
POLYLINE
  8
0
  6
SOLIDLINE
 62
5
 66
  1
 10
0.0
 20
0.0
 30
0.0
 40
0.03
 41
0.03
 70
1
  0
VERTEX
  8
0
 10
4.78
 20
6.34
 30
0.0
 42
1
  0
VERTEX
  8
0
 10
4.8
 20
6.34
 30
0.0
 42
1
  0
SEQEND
  0
POLYLINE
  8
0
  6
SOLIDLINE
 62
5
 66
  1
 10
0.0
 20
0.0
 30
0.0
 40
0.03
 41
0.03
 70
1
  0
VERTEX
  8
0
 10
4.78
 20
6.3
 30
0.0
 42
1
  0
VERTEX
  8
0
 10
4.8
 20
6.3
 30
0.0
 42
1
  0
SEQEND
  0
ARC
  8
0
  6
SOLIDLINE
 62
5
 10
4.47
 20
6.34
 40
0.03
 50
108.435
 51
180
  0
LINE
  8
0
  6
SOLIDLINE
 62
5
 10
4.46
 20
6.37
 11
4.79
 21
6.37
  0
ARC
  8
0
  6
SOLIDLINE
 62
5
 10
4.79
 20
6.34
 40
0.03
 50
2.92403e-010
 51
90
  0
LINE
  8
0
  6
SOLIDLINE
 62
5
 10
4.82
 20
6.34
 11
4.82
 21
6.3
  0
ARC
  8
0
  6
SOLIDLINE
 62
5
 10
4.47
 20
6.31
 40
0.04
 50
194.036
 51
255.964
  0
LINE
  8
0
  6
SOLIDLINE
 62
5
 10
4.79
 20
6.27
 11
4.46
 21
6.27
  0
ARC
  8
0
  6
SOLIDLINE
 62
5
 10
4.79
 20
6.31
 40
0.04
 50
270
 51
341.565
  0
LINE
  8
0
  6
SOLIDLINE
 62
5
 10
4.43
 20
6.3
 11
4.43
 21
6.34
  0
TEXT
  8
0
 62
7
 10
4.45
 20
6.27059
 30
0.0
 40
0.04704
  1
72.73mA
 50
0
 41
1.098
 72
0
 11
4.45
 21
6.27059
 31
0
 73
0
  0
LINE
  8
0
  6
SOLIDLINE
 62
94
 10
2.79
 20
5.9
 11
2.71
 21
5.93
  0
LINE
  8
0
  6
SOLIDLINE
 62
94
 10
2.71
 20
5.81
 11
2.79
 21
5.84
  0
LINE
  8
0
  6
SOLIDLINE
 62
94
 10
2.79
 20
5.84
 11
2.71
 21
5.87
  0
LINE
  8
0
  6
SOLIDLINE
 62
94
 10
2.71
 20
5.87
 11
2.79
 21
5.9
  0
LINE
  8
0
  6
SOLIDLINE
 62
94
 10
2.71
 20
5.93
 11
2.79
 21
5.96
  0
LINE
  8
0
  6
SOLIDLINE
 62
94
 10
2.75
 20
5.79
 11
2.71
 21
5.81
  0
LINE
  8
0
  6
SOLIDLINE
 62
94
 10
2.79
 20
5.96
 11
2.75
 21
5.98
  0
LINE
  8
0
  6
SOLIDLINE
 62
94
 10
2.75
 20
5.78
 11
2.75
 21
5.79
  0
LINE
  8
0
  6
SOLIDLINE
 62
5
 10
2.75
 20
6.08
 11
2.75
 21
5.98
  0
LINE
  8
0
  6
SOLIDLINE
 62
5
 10
2.75
 20
5.68
 11
2.75
 21
5.78
  0
TEXT
  8
0
 62
5
 10
2.83
 20
5.82059
 30
0.0
 40
0.04704
  1
10ohm
 50
0
 41
1.098
 72
0
 11
2.83
 21
5.82059
 31
0
 73
0
  0
TEXT
  8
0
 62
5
 10
2.53
 20
5.82059
 30
0.0
 40
0.04704
  1
R3
 50
0
 41
1.098
 72
0
 11
2.53
 21
5.82059
 31
0
 73
0
  0
SOLID
  8
0
  6
SOLIDLINE
 62
5
 10
2.73
 20
6.04
 30
0.0
 11
2.73
 21
6
 31
0.0
 12
3.12
 22
6.04
 32
0.0
 13
3.12
 23
6
 33
0.0
  0
SOLID
  8
0
  6
SOLIDLINE
 62
5
 10
2.76
 20
6.07
 30
0.0
 11
2.76
 21
5.97
 31
0.0
 12
3.09
 22
6.07
 32
0.0
 13
3.09
 23
5.97
 33
0.0
  0
POLYLINE
  8
0
  6
SOLIDLINE
 62
5
 66
  1
 10
0.0
 20
0.0
 30
0.0
 40
0.03
 41
0.03
 70
1
  0
VERTEX
  8
0
 10
2.75
 20
6.04
 30
0.0
 42
1
  0
VERTEX
  8
0
 10
2.77
 20
6.04
 30
0.0
 42
1
  0
SEQEND
  0
POLYLINE
  8
0
  6
SOLIDLINE
 62
5
 66
  1
 10
0.0
 20
0.0
 30
0.0
 40
0.03
 41
0.03
 70
1
  0
VERTEX
  8
0
 10
2.75
 20
6
 30
0.0
 42
1
  0
VERTEX
  8
0
 10
2.77
 20
6
 30
0.0
 42
1
  0
SEQEND
  0
POLYLINE
  8
0
  6
SOLIDLINE
 62
5
 66
  1
 10
0.0
 20
0.0
 30
0.0
 40
0.03
 41
0.03
 70
1
  0
VERTEX
  8
0
 10
3.08
 20
6.04
 30
0.0
 42
1
  0
VERTEX
  8
0
 10
3.1
 20
6.04
 30
0.0
 42
1
  0
SEQEND
  0
POLYLINE
  8
0
  6
SOLIDLINE
 62
5
 66
  1
 10
0.0
 20
0.0
 30
0.0
 40
0.03
 41
0.03
 70
1
  0
VERTEX
  8
0
 10
3.08
 20
6
 30
0.0
 42
1
  0
VERTEX
  8
0
 10
3.1
 20
6
 30
0.0
 42
1
  0
SEQEND
  0
ARC
  8
0
  6
SOLIDLINE
 62
5
 10
2.77
 20
6.04
 40
0.03
 50
108.435
 51
180
  0
LINE
  8
0
  6
SOLIDLINE
 62
5
 10
2.76
 20
6.07
 11
3.09
 21
6.07
  0
ARC
  8
0
  6
SOLIDLINE
 62
5
 10
3.09
 20
6.04
 40
0.03
 50
2.92403e-010
 51
90
  0
LINE
  8
0
  6
SOLIDLINE
 62
5
 10
3.12
 20
6.04
 11
3.12
 21
6
  0
ARC
  8
0
  6
SOLIDLINE
 62
5
 10
2.77
 20
6.01
 40
0.04
 50
194.036
 51
255.964
  0
LINE
  8
0
  6
SOLIDLINE
 62
5
 10
3.09
 20
5.97
 11
2.76
 21
5.97
  0
ARC
  8
0
  6
SOLIDLINE
 62
5
 10
3.09
 20
6.01
 40
0.04
 50
270
 51
341.565
  0
LINE
  8
0
  6
SOLIDLINE
 62
5
 10
2.73
 20
6
 11
2.73
 21
6.04
  0
TEXT
  8
0
 62
7
 10
2.75
 20
5.97059
 30
0.0
 40
0.04704
  1
90.91mA
 50
0
 41
1.098
 72
0
 11
2.75
 21
5.97059
 31
0
 73
0
  0
LINE
  8
0
  6
SOLIDLINE
 62
5
 10
3.92
 20
5.16
 11
3.98
 21
5.16
  0
LINE
  8
0
  6
SOLIDLINE
 62
5
 10
3.94
 20
5.14
 11
3.96
 21
5.14
  0
LINE
  8
0
  6
SOLIDLINE
 62
5
 10
3.9
 20
5.18
 11
4
 21
5.18
  0
LINE
  8
0
  6
SOLIDLINE
 62
5
 10
3.95
 20
5.28
 11
3.95
 21
5.18
  0
TEXT
  8
0
 62
5
 10
6.85
 20
0.420592
 30
0.0
 40
0.04704
  1
-
 50
0
 41
1.098
 72
0
 11
6.85
 21
0.420592
 31
0
 73
0
  0
TEXT
  8
0
 62
5
 10
6.35
 20
1.27059
 30
0.0
 40
0.04704
  1
OrCAD, Inc.
 50
0
 41
1.098
 72
0
 11
6.35
 21
1.27059
 31
0
 73
0
  0
TEXT
  8
0
 62
5
 10
6.35
 20
1.17059
 30
0.0
 40
0.04704
  1
13221 S.W. 68th Parkway, Suite 200
 50
0
 41
1.098
 72
0
 11
6.35
 21
1.17059
 31
0
 73
0
  0
TEXT
  8
0
 62
5
 10
6.35
 20
1.07059
 30
0.0
 40
0.04704
  1
Beaverton, OR 97223
 50
0
 41
1.098
 72
0
 11
6.35
 21
1.07059
 31
0
 73
0
  0
TEXT
  8
0
 62
5
 10
6.35
 20
0.970592
 30
0.0
 40
0.04704
  1
(503) 671-9500   (800) 671-9505
 50
0
 41
1.098
 72
0
 11
6.35
 21
0.970592
 31
0
 73
0
  0
TEXT
  8
0
 62
5
 10
6.35
 20
0.420592
 30
0.0
 40
0.04704
  1
Revision:
 50
0
 41
1.098
 72
0
 11
6.35
 21
0.420592
 31
0
 73
0
  0
TEXT
  8
0
 62
5
 10
7.75
 20
0.420592
 30
0.0
 40
0.04704
  1
January 1, 2000
 50
0
 41
1.098
 72
0
 11
7.75
 21
0.420592
 31
0
 73
0
  0
TEXT
  8
0
 62
5
 10
9.9498
 20
0.420592
 30
0.0
 40
0.04704
  1
Page           of
 50
0
 41
1.098
 72
2
 11
9.45
 21
0.420592
 31
0
 73
0
  0
TEXT
  8
0
 62
5
 10
9.844
 20
1.27059
 30
0.0
 40
0.04704
  1
Page Size:
 50
0
 41
1.098
 72
2
 11
9.55
 21
1.27059
 31
0
 73
0
  0
TEXT
  8
0
 62
5
 10
9.7647
 20
1.27059
 30
0.0
 40
0.04704
  1
A
 50
0
 41
1.098
 72
1
 11
9.75
 21
1.27059
 31
0
 73
0
  0
TEXT
  8
0
 62
5
 10
9.2794
 20
0.420592
 30
0.0
 40
0.04704
  1
1
 50
0
 41
1.098
 72
2
 11
9.25
 21
0.420592
 31
0
 73
0
  0
TEXT
  8
0
 62
5
 10
9.6794
 20
0.420592
 30
0.0
 40
0.04704
  1
1
 50
0
 41
1.098
 72
2
 11
9.65
 21
0.420592
 31
0
 73
0
  0
LINE
  8
0
  6
SOLIDLINE
 62
5
 10
9.95
 20
1.38
 11
6.25
 21
1.38
  0
LINE
  8
0
  6
SOLIDLINE
 62
5
 10
6.25
 20
1.38
 11
6.25
 21
0.38
  0
LINE
  8
0
  6
SOLIDLINE
 62
5
 10
6.25
 20
0.38
 11
9.95
 21
0.38
  0
LINE
  8
0
  6
SOLIDLINE
 62
5
 10
9.95
 20
0.38
 11
9.95
 21
1.38
  0
LINE
  8
0
  6
SOLIDLINE
 62
94
 10
2.15
 20
5.98
 11
2.15
 21
6.28
  0
LINE
  8
0
  6
SOLIDLINE
 62
94
 10
2.15
 20
6.28
 11
2.75
 21
6.28
  0
SOLID
  8
0
  6
SOLIDLINE
 62
94
 10
2.23
 20
6.27
 30
0.0
 11
2.23
 21
6.23
 31
0.0
 12
2.67
 22
6.27
 32
0.0
 13
2.67
 23
6.23
 33
0.0
  0
SOLID
  8
0
  6
SOLIDLINE
 62
94
 10
2.26
 20
6.3
 30
0.0
 11
2.26
 21
6.2
 31
0.0
 12
2.64
 22
6.3
 32
0.0
 13
2.64
 23
6.2
 33
0.0
  0
POLYLINE
  8
0
  6
SOLIDLINE
 62
94
 66
  1
 10
0.0
 20
0.0
 30
0.0
 40
0.03
 41
0.03
 70
1
  0
VERTEX
  8
0
 10
2.25
 20
6.27
 30
0.0
 42
1
  0
VERTEX
  8
0
 10
2.27
 20
6.27
 30
0.0
 42
1
  0
SEQEND
  0
POLYLINE
  8
0
  6
SOLIDLINE
 62
94
 66
  1
 10
0.0
 20
0.0
 30
0.0
 40
0.03
 41
0.03
 70
1
  0
VERTEX
  8
0
 10
2.25
 20
6.23
 30
0.0
 42
1
  0
VERTEX
  8
0
 10
2.27
 20
6.23
 30
0.0
 42
1
  0
SEQEND
  0
POLYLINE
  8
0
  6
SOLIDLINE
 62
94
 66
  1
 10
0.0
 20
0.0
 30
0.0
 40
0.03
 41
0.03
 70
1
  0
VERTEX
  8
0
 10
2.63
 20
6.27
 30
0.0
 42
1
  0
VERTEX
  8
0
 10
2.65
 20
6.27
 30
0.0
 42
1
  0
SEQEND
  0
POLYLINE
  8
0
  6
SOLIDLINE
 62
94
 66
  1
 10
0.0
 20
0.0
 30
0.0
 40
0.03
 41
0.03
 70
1
  0
VERTEX
  8
0
 10
2.63
 20
6.23
 30
0.0
 42
1
  0
VERTEX
  8
0
 10
2.65
 20
6.23
 30
0.0
 42
1
  0
SEQEND
  0
ARC
  8
0
  6
SOLIDLINE
 62
94
 10
2.27
 20
6.27
 40
0.03
 50
108.435
 51
180
  0
LINE
  8
0
  6
SOLIDLINE
 62
94
 10
2.26
 20
6.3
 11
2.64
 21
6.3
  0
ARC
  8
0
  6
SOLIDLINE
 62
94
 10
2.64
 20
6.27
 40
0.03
 50
2.92403e-010
 51
90
  0
LINE
  8
0
  6
SOLIDLINE
 62
94
 10
2.67
 20
6.27
 11
2.67
 21
6.23
  0
ARC
  8
0
  6
SOLIDLINE
 62
94
 10
2.27
 20
6.24
 40
0.04
 50
194.036
 51
255.964
  0
LINE
  8
0
  6
SOLIDLINE
 62
94
 10
2.64
 20
6.2
 11
2.26
 21
6.2
  0
ARC
  8
0
  6
SOLIDLINE
 62
94
 10
2.64
 20
6.24
 40
0.04
 50
270
 51
341.565
  0
LINE
  8
0
  6
SOLIDLINE
 62
94
 10
2.23
 20
6.23
 11
2.23
 21
6.27
  0
TEXT
  8
0
 62
7
 10
2.5676
 20
6.23355
 30
0.0
 40
0.04704
  1
909.09mV
 50
0
 41
1.098
 72
1
 11
2.45
 21
6.28059
 31
0
 73
3
  0
LINE
  8
0
  6
SOLIDLINE
 62
94
 10
2.75
 20
6.28
 11
2.95
 21
6.28
  0
LINE
  8
0
  6
SOLIDLINE
 62
94
 10
2.75
 20
6.08
 11
2.75
 21
6.28
  0
LINE
  8
0
  6
SOLIDLINE
 62
94
 10
3.95
 20
6.08
 11
3.95
 21
6.28
  0
LINE
  8
0
  6
SOLIDLINE
 62
94
 10
3.95
 20
6.28
 11
3.35
 21
6.28
  0
SOLID
  8
0
  6
SOLIDLINE
 62
94
 10
3.46
 20
6.27
 30
0.0
 11
3.46
 21
6.23
 31
0.0
 12
3.85
 22
6.27
 32
0.0
 13
3.85
 23
6.23
 33
0.0
  0
SOLID
  8
0
  6
SOLIDLINE
 62
94
 10
3.49
 20
6.3
 30
0.0
 11
3.49
 21
6.2
 31
0.0
 12
3.82
 22
6.3
 32
0.0
 13
3.82
 23
6.2
 33
0.0
  0
POLYLINE
  8
0
  6
SOLIDLINE
 62
94
 66
  1
 10
0.0
 20
0.0
 30
0.0
 40
0.03
 41
0.03
 70
1
  0
VERTEX
  8
0
 10
3.48
 20
6.27
 30
0.0
 42
1
  0
VERTEX
  8
0
 10
3.5
 20
6.27
 30
0.0
 42
1
  0
SEQEND
  0
POLYLINE
  8
0
  6
SOLIDLINE
 62
94
 66
  1
 10
0.0
 20
0.0
 30
0.0
 40
0.03
 41
0.03
 70
1
  0
VERTEX
  8
0
 10
3.48
 20
6.23
 30
0.0
 42
1
  0
VERTEX
  8
0
 10
3.5
 20
6.23
 30
0.0
 42
1
  0
SEQEND
  0
POLYLINE
  8
0
  6
SOLIDLINE
 62
94
 66
  1
 10
0.0
 20
0.0
 30
0.0
 40
0.03
 41
0.03
 70
1
  0
VERTEX
  8
0
 10
3.81
 20
6.27
 30
0.0
 42
1
  0
VERTEX
  8
0
 10
3.83
 20
6.27
 30
0.0
 42
1
  0
SEQEND
  0
POLYLINE
  8
0
  6
SOLIDLINE
 62
94
 66
  1
 10
0.0
 20
0.0
 30
0.0
 40
0.03
 41
0.03
 70
1
  0
VERTEX
  8
0
 10
3.81
 20
6.23
 30
0.0
 42
1
  0
VERTEX
  8
0
 10
3.83
 20
6.23
 30
0.0
 42
1
  0
SEQEND
  0
ARC
  8
0
  6
SOLIDLINE
 62
94
 10
3.5
 20
6.27
 40
0.03
 50
108.435
 51
180
  0
LINE
  8
0
  6
SOLIDLINE
 62
94
 10
3.49
 20
6.3
 11
3.82
 21
6.3
  0
ARC
  8
0
  6
SOLIDLINE
 62
94
 10
3.82
 20
6.27
 40
0.03
 50
2.92403e-010
 51
90
  0
LINE
  8
0
  6
SOLIDLINE
 62
94
 10
3.85
 20
6.27
 11
3.85
 21
6.23
  0
ARC
  8
0
  6
SOLIDLINE
 62
94
 10
3.5
 20
6.24
 40
0.04
 50
194.036
 51
255.964
  0
LINE
  8
0
  6
SOLIDLINE
 62
94
 10
3.82
 20
6.2
 11
3.49
 21
6.2
  0
ARC
  8
0
  6
SOLIDLINE
 62
94
 10
3.82
 20
6.24
 40
0.04
 50
270
 51
341.565
  0
LINE
  8
0
  6
SOLIDLINE
 62
94
 10
3.46
 20
6.23
 11
3.46
 21
6.27
  0
TEXT
  8
0
 62
7
 10
3.7529
 20
6.23355
 30
0.0
 40
0.04704
  1
-5.091V
 50
0
 41
1.098
 72
1
 11
3.65
 21
6.28059
 31
0
 73
3
  0
LINE
  8
0
  6
SOLIDLINE
 62
94
 10
3.95
 20
6.28
 11
4.15
 21
6.28
  0
LINE
  8
0
  6
SOLIDLINE
 62
94
 10
4.55
 20
6.28
 11
4.95
 21
6.28
  0
LINE
  8
0
  6
SOLIDLINE
 62
94
 10
2.75
 20
5.68
 11
2.75
 21
5.28
  0
LINE
  8
0
  6
SOLIDLINE
 62
94
 10
2.75
 20
5.28
 11
2.15
 21
5.28
  0
LINE
  8
0
  6
SOLIDLINE
 62
94
 10
2.15
 20
5.28
 11
2.15
 21
5.58
  0
LINE
  8
0
  6
SOLIDLINE
 62
94
 10
2.75
 20
5.28
 11
3.95
 21
5.28
  0
SOLID
  8
0
  6
SOLIDLINE
 62
94
 10
3.28
 20
5.27
 30
0.0
 11
3.28
 21
5.23
 31
0.0
 12
3.42
 22
5.27
 32
0.0
 13
3.42
 23
5.23
 33
0.0
  0
SOLID
  8
0
  6
SOLIDLINE
 62
94
 10
3.31
 20
5.3
 30
0.0
 11
3.31
 21
5.2
 31
0.0
 12
3.39
 22
5.3
 32
0.0
 13
3.39
 23
5.2
 33
0.0
  0
POLYLINE
  8
0
  6
SOLIDLINE
 62
94
 66
  1
 10
0.0
 20
0.0
 30
0.0
 40
0.03
 41
0.03
 70
1
  0
VERTEX
  8
0
 10
3.3
 20
5.27
 30
0.0
 42
1
  0
VERTEX
  8
0
 10
3.32
 20
5.27
 30
0.0
 42
1
  0
SEQEND
  0
POLYLINE
  8
0
  6
SOLIDLINE
 62
94
 66
  1
 10
0.0
 20
0.0
 30
0.0
 40
0.03
 41
0.03
 70
1
  0
VERTEX
  8
0
 10
3.3
 20
5.23
 30
0.0
 42
1
  0
VERTEX
  8
0
 10
3.32
 20
5.23
 30
0.0
 42
1
  0
SEQEND
  0
POLYLINE
  8
0
  6
SOLIDLINE
 62
94
 66
  1
 10
0.0
 20
0.0
 30
0.0
 40
0.03
 41
0.03
 70
1
  0
VERTEX
  8
0
 10
3.38
 20
5.27
 30
0.0
 42
1
  0
VERTEX
  8
0
 10
3.4
 20
5.27
 30
0.0
 42
1
  0
SEQEND
  0
POLYLINE
  8
0
  6
SOLIDLINE
 62
94
 66
  1
 10
0.0
 20
0.0
 30
0.0
 40
0.03
 41
0.03
 70
1
  0
VERTEX
  8
0
 10
3.38
 20
5.23
 30
0.0
 42
1
  0
VERTEX
  8
0
 10
3.4
 20
5.23
 30
0.0
 42
1
  0
SEQEND
  0
ARC
  8
0
  6
SOLIDLINE
 62
94
 10
3.32
 20
5.27
 40
0.03
 50
108.435
 51
180
  0
LINE
  8
0
  6
SOLIDLINE
 62
94
 10
3.31
 20
5.3
 11
3.39
 21
5.3
  0
ARC
  8
0
  6
SOLIDLINE
 62
94
 10
3.39
 20
5.27
 40
0.03
 50
2.92403e-010
 51
90
  0
LINE
  8
0
  6
SOLIDLINE
 62
94
 10
3.42
 20
5.27
 11
3.42
 21
5.23
  0
ARC
  8
0
  6
SOLIDLINE
 62
94
 10
3.32
 20
5.24
 40
0.04
 50
194.036
 51
255.964
  0
LINE
  8
0
  6
SOLIDLINE
 62
94
 10
3.39
 20
5.2
 11
3.31
 21
5.2
  0
ARC
  8
0
  6
SOLIDLINE
 62
94
 10
3.39
 20
5.24
 40
0.04
 50
270
 51
341.565
  0
LINE
  8
0
  6
SOLIDLINE
 62
94
 10
3.28
 20
5.23
 11
3.28
 21
5.27
  0
TEXT
  8
0
 62
7
 10
3.3794
 20
5.23355
 30
0.0
 40
0.04704
  1
0V
 50
0
 41
1.098
 72
1
 11
3.35
 21
5.28059
 31
0
 73
3
  0
LINE
  8
0
  6
SOLIDLINE
 62
94
 10
3.95
 20
5.28
 11
4.95
 21
5.28
  0
LINE
  8
0
  6
SOLIDLINE
 62
94
 10
3.95
 20
5.28
 11
3.95
 21
5.68
  0
LINE
  8
0
  6
SOLIDLINE
 62
94
 10
4.95
 20
6.28
 11
4.95
 21
5.28
  0
POLYLINE
  8
0
  6
SOLIDLINE
 62
5
 66
  1
 10
0.0
 20
0.0
 30
0.0
 40
0.02
 41
0.02
 70
1
  0
VERTEX
  8
0
 10
2.74
 20
6.28
 30
0.0
 42
1
  0
VERTEX
  8
0
 10
2.76
 20
6.28
 30
0.0
 42
1
  0
SEQEND
  0
POLYLINE
  8
0
  6
SOLIDLINE
 62
5
 66
  1
 10
0.0
 20
0.0
 30
0.0
 40
0.02
 41
0.02
 70
1
  0
VERTEX
  8
0
 10
2.74
 20
5.28
 30
0.0
 42
1
  0
VERTEX
  8
0
 10
2.76
 20
5.28
 30
0.0
 42
1
  0
SEQEND
  0
POLYLINE
  8
0
  6
SOLIDLINE
 62
5
 66
  1
 10
0.0
 20
0.0
 30
0.0
 40
0.02
 41
0.02
 70
1
  0
VERTEX
  8
0
 10
3.94
 20
5.28
 30
0.0
 42
1
  0
VERTEX
  8
0
 10
3.96
 20
5.28
 30
0.0
 42
1
  0
SEQEND
  0
POLYLINE
  8
0
  6
SOLIDLINE
 62
5
 66
  1
 10
0.0
 20
0.0
 30
0.0
 40
0.02
 41
0.02
 70
1
  0
VERTEX
  8
0
 10
3.94
 20
6.28
 30
0.0
 42
1
  0
VERTEX
  8
0
 10
3.96
 20
6.28
 30
0.0
 42
1
  0
SEQEND
  0
POLYLINE
  8
0
  6
SOLIDLINE
 62
5
 66
  1
 10
0.0
 20
0.0
 30
0.0
 40
0.02
 41
0.02
 70
1
  0
VERTEX
  8
0
 10
3.94
 20
5.28
 30
0.0
 42
1
  0
VERTEX
  8
0
 10
3.96
 20
5.28
 30
0.0
 42
1
  0
SEQEND
  0
SOLID
  8
0
  6
SOLIDLINE
 62
94
 10
2.23
 20
6.27
 30
0.0
 11
2.23
 21
6.23
 31
0.0
 12
2.67
 22
6.27
 32
0.0
 13
2.67
 23
6.23
 33
0.0
  0
SOLID
  8
0
  6
SOLIDLINE
 62
94
 10
2.26
 20
6.3
 30
0.0
 11
2.26
 21
6.2
 31
0.0
 12
2.64
 22
6.3
 32
0.0
 13
2.64
 23
6.2
 33
0.0
  0
POLYLINE
  8
0
  6
SOLIDLINE
 62
94
 66
  1
 10
0.0
 20
0.0
 30
0.0
 40
0.03
 41
0.03
 70
1
  0
VERTEX
  8
0
 10
2.25
 20
6.27
 30
0.0
 42
1
  0
VERTEX
  8
0
 10
2.27
 20
6.27
 30
0.0
 42
1
  0
SEQEND
  0
POLYLINE
  8
0
  6
SOLIDLINE
 62
94
 66
  1
 10
0.0
 20
0.0
 30
0.0
 40
0.03
 41
0.03
 70
1
  0
VERTEX
  8
0
 10
2.25
 20
6.23
 30
0.0
 42
1
  0
VERTEX
  8
0
 10
2.27
 20
6.23
 30
0.0
 42
1
  0
SEQEND
  0
POLYLINE
  8
0
  6
SOLIDLINE
 62
94
 66
  1
 10
0.0
 20
0.0
 30
0.0
 40
0.03
 41
0.03
 70
1
  0
VERTEX
  8
0
 10
2.63
 20
6.27
 30
0.0
 42
1
  0
VERTEX
  8
0
 10
2.65
 20
6.27
 30
0.0
 42
1
  0
SEQEND
  0
POLYLINE
  8
0
  6
SOLIDLINE
 62
94
 66
  1
 10
0.0
 20
0.0
 30
0.0
 40
0.03
 41
0.03
 70
1
  0
VERTEX
  8
0
 10
2.63
 20
6.23
 30
0.0
 42
1
  0
VERTEX
  8
0
 10
2.65
 20
6.23
 30
0.0
 42
1
  0
SEQEND
  0
ARC
  8
0
  6
SOLIDLINE
 62
94
 10
2.27
 20
6.27
 40
0.03
 50
108.435
 51
180
  0
LINE
  8
0
  6
SOLIDLINE
 62
94
 10
2.26
 20
6.3
 11
2.64
 21
6.3
  0
ARC
  8
0
  6
SOLIDLINE
 62
94
 10
2.64
 20
6.27
 40
0.03
 50
2.92403e-010
 51
90
  0
LINE
  8
0
  6
SOLIDLINE
 62
94
 10
2.67
 20
6.27
 11
2.67
 21
6.23
  0
ARC
  8
0
  6
SOLIDLINE
 62
94
 10
2.27
 20
6.24
 40
0.04
 50
194.036
 51
255.964
  0
LINE
  8
0
  6
SOLIDLINE
 62
94
 10
2.64
 20
6.2
 11
2.26
 21
6.2
  0
ARC
  8
0
  6
SOLIDLINE
 62
94
 10
2.64
 20
6.24
 40
0.04
 50
270
 51
341.565
  0
LINE
  8
0
  6
SOLIDLINE
 62
94
 10
2.23
 20
6.23
 11
2.23
 21
6.27
  0
TEXT
  8
0
 62
7
 10
2.5676
 20
6.23355
 30
0.0
 40
0.04704
  1
909.09mV
 50
0
 41
1.098
 72
1
 11
2.45
 21
6.28059
 31
0
 73
3
  0
SOLID
  8
0
  6
SOLIDLINE
 62
94
 10
3.46
 20
6.27
 30
0.0
 11
3.46
 21
6.23
 31
0.0
 12
3.85
 22
6.27
 32
0.0
 13
3.85
 23
6.23
 33
0.0
  0
SOLID
  8
0
  6
SOLIDLINE
 62
94
 10
3.49
 20
6.3
 30
0.0
 11
3.49
 21
6.2
 31
0.0
 12
3.82
 22
6.3
 32
0.0
 13
3.82
 23
6.2
 33
0.0
  0
POLYLINE
  8
0
  6
SOLIDLINE
 62
94
 66
  1
 10
0.0
 20
0.0
 30
0.0
 40
0.03
 41
0.03
 70
1
  0
VERTEX
  8
0
 10
3.48
 20
6.27
 30
0.0
 42
1
  0
VERTEX
  8
0
 10
3.5
 20
6.27
 30
0.0
 42
1
  0
SEQEND
  0
POLYLINE
  8
0
  6
SOLIDLINE
 62
94
 66
  1
 10
0.0
 20
0.0
 30
0.0
 40
0.03
 41
0.03
 70
1
  0
VERTEX
  8
0
 10
3.48
 20
6.23
 30
0.0
 42
1
  0
VERTEX
  8
0
 10
3.5
 20
6.23
 30
0.0
 42
1
  0
SEQEND
  0
POLYLINE
  8
0
  6
SOLIDLINE
 62
94
 66
  1
 10
0.0
 20
0.0
 30
0.0
 40
0.03
 41
0.03
 70
1
  0
VERTEX
  8
0
 10
3.81
 20
6.27
 30
0.0
 42
1
  0
VERTEX
  8
0
 10
3.83
 20
6.27
 30
0.0
 42
1
  0
SEQEND
  0
POLYLINE
  8
0
  6
SOLIDLINE
 62
94
 66
  1
 10
0.0
 20
0.0
 30
0.0
 40
0.03
 41
0.03
 70
1
  0
VERTEX
  8
0
 10
3.81
 20
6.23
 30
0.0
 42
1
  0
VERTEX
  8
0
 10
3.83
 20
6.23
 30
0.0
 42
1
  0
SEQEND
  0
ARC
  8
0
  6
SOLIDLINE
 62
94
 10
3.5
 20
6.27
 40
0.03
 50
108.435
 51
180
  0
LINE
  8
0
  6
SOLIDLINE
 62
94
 10
3.49
 20
6.3
 11
3.82
 21
6.3
  0
ARC
  8
0
  6
SOLIDLINE
 62
94
 10
3.82
 20
6.27
 40
0.03
 50
2.92403e-010
 51
90
  0
LINE
  8
0
  6
SOLIDLINE
 62
94
 10
3.85
 20
6.27
 11
3.85
 21
6.23
  0
ARC
  8
0
  6
SOLIDLINE
 62
94
 10
3.5
 20
6.24
 40
0.04
 50
194.036
 51
255.964
  0
LINE
  8
0
  6
SOLIDLINE
 62
94
 10
3.82
 20
6.2
 11
3.49
 21
6.2
  0
ARC
  8
0
  6
SOLIDLINE
 62
94
 10
3.82
 20
6.24
 40
0.04
 50
270
 51
341.565
  0
LINE
  8
0
  6
SOLIDLINE
 62
94
 10
3.46
 20
6.23
 11
3.46
 21
6.27
  0
TEXT
  8
0
 62
7
 10
3.7529
 20
6.23355
 30
0.0
 40
0.04704
  1
-5.091V
 50
0
 41
1.098
 72
1
 11
3.65
 21
6.28059
 31
0
 73
3
  0
SOLID
  8
0
  6
SOLIDLINE
 62
94
 10
3.28
 20
5.27
 30
0.0
 11
3.28
 21
5.23
 31
0.0
 12
3.42
 22
5.27
 32
0.0
 13
3.42
 23
5.23
 33
0.0
  0
SOLID
  8
0
  6
SOLIDLINE
 62
94
 10
3.31
 20
5.3
 30
0.0
 11
3.31
 21
5.2
 31
0.0
 12
3.39
 22
5.3
 32
0.0
 13
3.39
 23
5.2
 33
0.0
  0
POLYLINE
  8
0
  6
SOLIDLINE
 62
94
 66
  1
 10
0.0
 20
0.0
 30
0.0
 40
0.03
 41
0.03
 70
1
  0
VERTEX
  8
0
 10
3.3
 20
5.27
 30
0.0
 42
1
  0
VERTEX
  8
0
 10
3.32
 20
5.27
 30
0.0
 42
1
  0
SEQEND
  0
POLYLINE
  8
0
  6
SOLIDLINE
 62
94
 66
  1
 10
0.0
 20
0.0
 30
0.0
 40
0.03
 41
0.03
 70
1
  0
VERTEX
  8
0
 10
3.3
 20
5.23
 30
0.0
 42
1
  0
VERTEX
  8
0
 10
3.32
 20
5.23
 30
0.0
 42
1
  0
SEQEND
  0
POLYLINE
  8
0
  6
SOLIDLINE
 62
94
 66
  1
 10
0.0
 20
0.0
 30
0.0
 40
0.03
 41
0.03
 70
1
  0
VERTEX
  8
0
 10
3.38
 20
5.27
 30
0.0
 42
1
  0
VERTEX
  8
0
 10
3.4
 20
5.27
 30
0.0
 42
1
  0
SEQEND
  0
POLYLINE
  8
0
  6
SOLIDLINE
 62
94
 66
  1
 10
0.0
 20
0.0
 30
0.0
 40
0.03
 41
0.03
 70
1
  0
VERTEX
  8
0
 10
3.38
 20
5.23
 30
0.0
 42
1
  0
VERTEX
  8
0
 10
3.4
 20
5.23
 30
0.0
 42
1
  0
SEQEND
  0
ARC
  8
0
  6
SOLIDLINE
 62
94
 10
3.32
 20
5.27
 40
0.03
 50
108.435
 51
180
  0
LINE
  8
0
  6
SOLIDLINE
 62
94
 10
3.31
 20
5.3
 11
3.39
 21
5.3
  0
ARC
  8
0
  6
SOLIDLINE
 62
94
 10
3.39
 20
5.27
 40
0.03
 50
2.92403e-010
 51
90
  0
LINE
  8
0
  6
SOLIDLINE
 62
94
 10
3.42
 20
5.27
 11
3.42
 21
5.23
  0
ARC
  8
0
  6
SOLIDLINE
 62
94
 10
3.32
 20
5.24
 40
0.04
 50
194.036
 51
255.964
  0
LINE
  8
0
  6
SOLIDLINE
 62
94
 10
3.39
 20
5.2
 11
3.31
 21
5.2
  0
ARC
  8
0
  6
SOLIDLINE
 62
94
 10
3.39
 20
5.24
 40
0.04
 50
270
 51
341.565
  0
LINE
  8
0
  6
SOLIDLINE
 62
94
 10
3.28
 20
5.23
 11
3.28
 21
5.27
  0
TEXT
  8
0
 62
7
 10
3.3794
 20
5.23355
 30
0.0
 40
0.04704
  1
0V
 50
0
 41
1.098
 72
1
 11
3.35
 21
5.28059
 31
0
 73
3
  0
SOLID
  8
0
  6
SOLIDLINE
 62
5
 10
2.13
 20
5.94
 30
0.0
 11
2.13
 21
5.9
 31
0.0
 12
2.47
 22
5.94
 32
0.0
 13
2.47
 23
5.9
 33
0.0
  0
SOLID
  8
0
  6
SOLIDLINE
 62
5
 10
2.16
 20
5.97
 30
0.0
 11
2.16
 21
5.87
 31
0.0
 12
2.44
 22
5.97
 32
0.0
 13
2.44
 23
5.87
 33
0.0
  0
POLYLINE
  8
0
  6
SOLIDLINE
 62
5
 66
  1
 10
0.0
 20
0.0
 30
0.0
 40
0.03
 41
0.03
 70
1
  0
VERTEX
  8
0
 10
2.15
 20
5.94
 30
0.0
 42
1
  0
VERTEX
  8
0
 10
2.17
 20
5.94
 30
0.0
 42
1
  0
SEQEND
  0
POLYLINE
  8
0
  6
SOLIDLINE
 62
5
 66
  1
 10
0.0
 20
0.0
 30
0.0
 40
0.03
 41
0.03
 70
1
  0
VERTEX
  8
0
 10
2.15
 20
5.9
 30
0.0
 42
1
  0
VERTEX
  8
0
 10
2.17
 20
5.9
 30
0.0
 42
1
  0
SEQEND
  0
POLYLINE
  8
0
  6
SOLIDLINE
 62
5
 66
  1
 10
0.0
 20
0.0
 30
0.0
 40
0.03
 41
0.03
 70
1
  0
VERTEX
  8
0
 10
2.43
 20
5.94
 30
0.0
 42
1
  0
VERTEX
  8
0
 10
2.45
 20
5.94
 30
0.0
 42
1
  0
SEQEND
  0
POLYLINE
  8
0
  6
SOLIDLINE
 62
5
 66
  1
 10
0.0
 20
0.0
 30
0.0
 40
0.03
 41
0.03
 70
1
  0
VERTEX
  8
0
 10
2.43
 20
5.9
 30
0.0
 42
1
  0
VERTEX
  8
0
 10
2.45
 20
5.9
 30
0.0
 42
1
  0
SEQEND
  0
ARC
  8
0
  6
SOLIDLINE
 62
5
 10
2.17
 20
5.94
 40
0.03
 50
108.435
 51
180
  0
LINE
  8
0
  6
SOLIDLINE
 62
5
 10
2.16
 20
5.97
 11
2.44
 21
5.97
  0
ARC
  8
0
  6
SOLIDLINE
 62
5
 10
2.44
 20
5.94
 40
0.03
 50
2.92403e-010
 51
90
  0
LINE
  8
0
  6
SOLIDLINE
 62
5
 10
2.47
 20
5.94
 11
2.47
 21
5.9
  0
ARC
  8
0
  6
SOLIDLINE
 62
5
 10
2.17
 20
5.91
 40
0.04
 50
194.036
 51
255.964
  0
LINE
  8
0
  6
SOLIDLINE
 62
5
 10
2.44
 20
5.87
 11
2.16
 21
5.87
  0
ARC
  8
0
  6
SOLIDLINE
 62
5
 10
2.44
 20
5.91
 40
0.04
 50
270
 51
341.565
  0
LINE
  8
0
  6
SOLIDLINE
 62
5
 10
2.13
 20
5.9
 11
2.13
 21
5.94
  0
TEXT
  8
0
 62
7
 10
2.15
 20
5.87059
 30
0.0
 40
0.04704
  1
1.000A
 50
0
 41
1.098
 72
0
 11
2.15
 21
5.87059
 31
0
 73
0
  0
SOLID
  8
0
  6
SOLIDLINE
 62
5
 10
3.23
 20
6.34
 30
0.0
 11
3.23
 21
6.3
 31
0.0
 12
3.57
 22
6.34
 32
0.0
 13
3.57
 23
6.3
 33
0.0
  0
SOLID
  8
0
  6
SOLIDLINE
 62
5
 10
3.26
 20
6.37
 30
0.0
 11
3.26
 21
6.27
 31
0.0
 12
3.54
 22
6.37
 32
0.0
 13
3.54
 23
6.27
 33
0.0
  0
POLYLINE
  8
0
  6
SOLIDLINE
 62
5
 66
  1
 10
0.0
 20
0.0
 30
0.0
 40
0.03
 41
0.03
 70
1
  0
VERTEX
  8
0
 10
3.25
 20
6.34
 30
0.0
 42
1
  0
VERTEX
  8
0
 10
3.27
 20
6.34
 30
0.0
 42
1
  0
SEQEND
  0
POLYLINE
  8
0
  6
SOLIDLINE
 62
5
 66
  1
 10
0.0
 20
0.0
 30
0.0
 40
0.03
 41
0.03
 70
1
  0
VERTEX
  8
0
 10
3.25
 20
6.3
 30
0.0
 42
1
  0
VERTEX
  8
0
 10
3.27
 20
6.3
 30
0.0
 42
1
  0
SEQEND
  0
POLYLINE
  8
0
  6
SOLIDLINE
 62
5
 66
  1
 10
0.0
 20
0.0
 30
0.0
 40
0.03
 41
0.03
 70
1
  0
VERTEX
  8
0
 10
3.53
 20
6.34
 30
0.0
 42
1
  0
VERTEX
  8
0
 10
3.55
 20
6.34
 30
0.0
 42
1
  0
SEQEND
  0
POLYLINE
  8
0
  6
SOLIDLINE
 62
5
 66
  1
 10
0.0
 20
0.0
 30
0.0
 40
0.03
 41
0.03
 70
1
  0
VERTEX
  8
0
 10
3.53
 20
6.3
 30
0.0
 42
1
  0
VERTEX
  8
0
 10
3.55
 20
6.3
 30
0.0
 42
1
  0
SEQEND
  0
ARC
  8
0
  6
SOLIDLINE
 62
5
 10
3.27
 20
6.34
 40
0.03
 50
108.435
 51
180
  0
LINE
  8
0
  6
SOLIDLINE
 62
5
 10
3.26
 20
6.37
 11
3.54
 21
6.37
  0
ARC
  8
0
  6
SOLIDLINE
 62
5
 10
3.54
 20
6.34
 40
0.03
 50
2.92403e-010
 51
90
  0
LINE
  8
0
  6
SOLIDLINE
 62
5
 10
3.57
 20
6.34
 11
3.57
 21
6.3
  0
ARC
  8
0
  6
SOLIDLINE
 62
5
 10
3.27
 20
6.31
 40
0.04
 50
194.036
 51
255.964
  0
LINE
  8
0
  6
SOLIDLINE
 62
5
 10
3.54
 20
6.27
 11
3.26
 21
6.27
  0
ARC
  8
0
  6
SOLIDLINE
 62
5
 10
3.54
 20
6.31
 40
0.04
 50
270
 51
341.565
  0
LINE
  8
0
  6
SOLIDLINE
 62
5
 10
3.23
 20
6.3
 11
3.23
 21
6.34
  0
TEXT
  8
0
 62
7
 10
3.25
 20
6.27059
 30
0.0
 40
0.04704
  1
1.091A
 50
0
 41
1.098
 72
0
 11
3.25
 21
6.27059
 31
0
 73
0
  0
SOLID
  8
0
  6
SOLIDLINE
 62
5
 10
3.93
 20
5.76
 30
0.0
 11
3.93
 21
5.72
 31
0.0
 12
4.27
 22
5.76
 32
0.0
 13
4.27
 23
5.72
 33
0.0
  0
SOLID
  8
0
  6
SOLIDLINE
 62
5
 10
3.96
 20
5.79
 30
0.0
 11
3.96
 21
5.69
 31
0.0
 12
4.24
 22
5.79
 32
0.0
 13
4.24
 23
5.69
 33
0.0
  0
POLYLINE
  8
0
  6
SOLIDLINE
 62
5
 66
  1
 10
0.0
 20
0.0
 30
0.0
 40
0.03
 41
0.03
 70
1
  0
VERTEX
  8
0
 10
3.95
 20
5.76
 30
0.0
 42
1
  0
VERTEX
  8
0
 10
3.97
 20
5.76
 30
0.0
 42
1
  0
SEQEND
  0
POLYLINE
  8
0
  6
SOLIDLINE
 62
5
 66
  1
 10
0.0
 20
0.0
 30
0.0
 40
0.03
 41
0.03
 70
1
  0
VERTEX
  8
0
 10
3.95
 20
5.72
 30
0.0
 42
1
  0
VERTEX
  8
0
 10
3.97
 20
5.72
 30
0.0
 42
1
  0
SEQEND
  0
POLYLINE
  8
0
  6
SOLIDLINE
 62
5
 66
  1
 10
0.0
 20
0.0
 30
0.0
 40
0.03
 41
0.03
 70
1
  0
VERTEX
  8
0
 10
4.23
 20
5.76
 30
0.0
 42
1
  0
VERTEX
  8
0
 10
4.25
 20
5.76
 30
0.0
 42
1
  0
SEQEND
  0
POLYLINE
  8
0
  6
SOLIDLINE
 62
5
 66
  1
 10
0.0
 20
0.0
 30
0.0
 40
0.03
 41
0.03
 70
1
  0
VERTEX
  8
0
 10
4.23
 20
5.72
 30
0.0
 42
1
  0
VERTEX
  8
0
 10
4.25
 20
5.72
 30
0.0
 42
1
  0
SEQEND
  0
ARC
  8
0
  6
SOLIDLINE
 62
5
 10
3.97
 20
5.76
 40
0.03
 50
108.435
 51
180
  0
LINE
  8
0
  6
SOLIDLINE
 62
5
 10
3.96
 20
5.79
 11
4.24
 21
5.79
  0
ARC
  8
0
  6
SOLIDLINE
 62
5
 10
4.24
 20
5.76
 40
0.03
 50
2.92403e-010
 51
90
  0
LINE
  8
0
  6
SOLIDLINE
 62
5
 10
4.27
 20
5.76
 11
4.27
 21
5.72
  0
ARC
  8
0
  6
SOLIDLINE
 62
5
 10
3.97
 20
5.73
 40
0.04
 50
194.036
 51
255.964
  0
LINE
  8
0
  6
SOLIDLINE
 62
5
 10
4.24
 20
5.69
 11
3.96
 21
5.69
  0
ARC
  8
0
  6
SOLIDLINE
 62
5
 10
4.24
 20
5.73
 40
0.04
 50
270
 51
341.565
  0
LINE
  8
0
  6
SOLIDLINE
 62
5
 10
3.93
 20
5.72
 11
3.93
 21
5.76
  0
TEXT
  8
0
 62
7
 10
3.95
 20
5.72355
 30
0.0
 40
0.04704
  1
1.018A
 50
0
 41
1.098
 72
0
 11
3.95
 21
5.77059
 31
0
 73
3
  0
SOLID
  8
0
  6
SOLIDLINE
 62
5
 10
4.43
 20
6.34
 30
0.0
 11
4.43
 21
6.3
 31
0.0
 12
4.82
 22
6.34
 32
0.0
 13
4.82
 23
6.3
 33
0.0
  0
SOLID
  8
0
  6
SOLIDLINE
 62
5
 10
4.46
 20
6.37
 30
0.0
 11
4.46
 21
6.27
 31
0.0
 12
4.79
 22
6.37
 32
0.0
 13
4.79
 23
6.27
 33
0.0
  0
POLYLINE
  8
0
  6
SOLIDLINE
 62
5
 66
  1
 10
0.0
 20
0.0
 30
0.0
 40
0.03
 41
0.03
 70
1
  0
VERTEX
  8
0
 10
4.45
 20
6.34
 30
0.0
 42
1
  0
VERTEX
  8
0
 10
4.47
 20
6.34
 30
0.0
 42
1
  0
SEQEND
  0
POLYLINE
  8
0
  6
SOLIDLINE
 62
5
 66
  1
 10
0.0
 20
0.0
 30
0.0
 40
0.03
 41
0.03
 70
1
  0
VERTEX
  8
0
 10
4.45
 20
6.3
 30
0.0
 42
1
  0
VERTEX
  8
0
 10
4.47
 20
6.3
 30
0.0
 42
1
  0
SEQEND
  0
POLYLINE
  8
0
  6
SOLIDLINE
 62
5
 66
  1
 10
0.0
 20
0.0
 30
0.0
 40
0.03
 41
0.03
 70
1
  0
VERTEX
  8
0
 10
4.78
 20
6.34
 30
0.0
 42
1
  0
VERTEX
  8
0
 10
4.8
 20
6.34
 30
0.0
 42
1
  0
SEQEND
  0
POLYLINE
  8
0
  6
SOLIDLINE
 62
5
 66
  1
 10
0.0
 20
0.0
 30
0.0
 40
0.03
 41
0.03
 70
1
  0
VERTEX
  8
0
 10
4.78
 20
6.3
 30
0.0
 42
1
  0
VERTEX
  8
0
 10
4.8
 20
6.3
 30
0.0
 42
1
  0
SEQEND
  0
ARC
  8
0
  6
SOLIDLINE
 62
5
 10
4.47
 20
6.34
 40
0.03
 50
108.435
 51
180
  0
LINE
  8
0
  6
SOLIDLINE
 62
5
 10
4.46
 20
6.37
 11
4.79
 21
6.37
  0
ARC
  8
0
  6
SOLIDLINE
 62
5
 10
4.79
 20
6.34
 40
0.03
 50
2.92403e-010
 51
90
  0
LINE
  8
0
  6
SOLIDLINE
 62
5
 10
4.82
 20
6.34
 11
4.82
 21
6.3
  0
ARC
  8
0
  6
SOLIDLINE
 62
5
 10
4.47
 20
6.31
 40
0.04
 50
194.036
 51
255.964
  0
LINE
  8
0
  6
SOLIDLINE
 62
5
 10
4.79
 20
6.27
 11
4.46
 21
6.27
  0
ARC
  8
0
  6
SOLIDLINE
 62
5
 10
4.79
 20
6.31
 40
0.04
 50
270
 51
341.565
  0
LINE
  8
0
  6
SOLIDLINE
 62
5
 10
4.43
 20
6.3
 11
4.43
 21
6.34
  0
TEXT
  8
0
 62
7
 10
4.45
 20
6.27059
 30
0.0
 40
0.04704
  1
72.73mA
 50
0
 41
1.098
 72
0
 11
4.45
 21
6.27059
 31
0
 73
0
  0
SOLID
  8
0
  6
SOLIDLINE
 62
5
 10
2.73
 20
6.04
 30
0.0
 11
2.73
 21
6
 31
0.0
 12
3.12
 22
6.04
 32
0.0
 13
3.12
 23
6
 33
0.0
  0
SOLID
  8
0
  6
SOLIDLINE
 62
5
 10
2.76
 20
6.07
 30
0.0
 11
2.76
 21
5.97
 31
0.0
 12
3.09
 22
6.07
 32
0.0
 13
3.09
 23
5.97
 33
0.0
  0
POLYLINE
  8
0
  6
SOLIDLINE
 62
5
 66
  1
 10
0.0
 20
0.0
 30
0.0
 40
0.03
 41
0.03
 70
1
  0
VERTEX
  8
0
 10
2.75
 20
6.04
 30
0.0
 42
1
  0
VERTEX
  8
0
 10
2.77
 20
6.04
 30
0.0
 42
1
  0
SEQEND
  0
POLYLINE
  8
0
  6
SOLIDLINE
 62
5
 66
  1
 10
0.0
 20
0.0
 30
0.0
 40
0.03
 41
0.03
 70
1
  0
VERTEX
  8
0
 10
2.75
 20
6
 30
0.0
 42
1
  0
VERTEX
  8
0
 10
2.77
 20
6
 30
0.0
 42
1
  0
SEQEND
  0
POLYLINE
  8
0
  6
SOLIDLINE
 62
5
 66
  1
 10
0.0
 20
0.0
 30
0.0
 40
0.03
 41
0.03
 70
1
  0
VERTEX
  8
0
 10
3.08
 20
6.04
 30
0.0
 42
1
  0
VERTEX
  8
0
 10
3.1
 20
6.04
 30
0.0
 42
1
  0
SEQEND
  0
POLYLINE
  8
0
  6
SOLIDLINE
 62
5
 66
  1
 10
0.0
 20
0.0
 30
0.0
 40
0.03
 41
0.03
 70
1
  0
VERTEX
  8
0
 10
3.08
 20
6
 30
0.0
 42
1
  0
VERTEX
  8
0
 10
3.1
 20
6
 30
0.0
 42
1
  0
SEQEND
  0
ARC
  8
0
  6
SOLIDLINE
 62
5
 10
2.77
 20
6.04
 40
0.03
 50
108.435
 51
180
  0
LINE
  8
0
  6
SOLIDLINE
 62
5
 10
2.76
 20
6.07
 11
3.09
 21
6.07
  0
ARC
  8
0
  6
SOLIDLINE
 62
5
 10
3.09
 20
6.04
 40
0.03
 50
2.92403e-010
 51
90
  0
LINE
  8
0
  6
SOLIDLINE
 62
5
 10
3.12
 20
6.04
 11
3.12
 21
6
  0
ARC
  8
0
  6
SOLIDLINE
 62
5
 10
2.77
 20
6.01
 40
0.04
 50
194.036
 51
255.964
  0
LINE
  8
0
  6
SOLIDLINE
 62
5
 10
3.09
 20
5.97
 11
2.76
 21
5.97
  0
ARC
  8
0
  6
SOLIDLINE
 62
5
 10
3.09
 20
6.01
 40
0.04
 50
270
 51
341.565
  0
LINE
  8
0
  6
SOLIDLINE
 62
5
 10
2.73
 20
6
 11
2.73
 21
6.04
  0
TEXT
  8
0
 62
7
 10
2.75
 20
5.97059
 30
0.0
 40
0.04704
  1
90.91mA
 50
0
 41
1.098
 72
0
 11
2.75
 21
5.97059
 31
0
 73
0
  0
ENDSEC
  0
EOF
